<?xml version="1.0" encoding="UTF-8" standalone="no"?>
<!-- Created with Inkscape (http://www.inkscape.org/) -->

<svg
   xmlns:dc="http://purl.org/dc/elements/1.1/"
   xmlns:cc="http://creativecommons.org/ns#"
   xmlns:rdf="http://www.w3.org/1999/02/22-rdf-syntax-ns#"
   xmlns:svg="http://www.w3.org/2000/svg"
   xmlns="http://www.w3.org/2000/svg"
   xmlns:sodipodi="http://sodipodi.sourceforge.net/DTD/sodipodi-0.dtd"
   xmlns:inkscape="http://www.inkscape.org/namespaces/inkscape"
   width="600"
   height="900"
   id="svg2"
   version="1.1"
   inkscape:version="0.48.4 r9939"
   sodipodi:docname="bus_station.svg">
  <title
     id="title3004">5.16 Место остановки автобуса и (или) троллейбуса</title>
  <defs
     id="defs4">
    <filter
       id="filter3048"
       style="color-interpolation-filters:sRGB;"
       inkscape:label="Drop Shadow">
      <feFlood
         id="feFlood3050"
         flood-opacity="0.5"
         flood-color="rgb(0,0,0)"
         result="flood" />
      <feComposite
         id="feComposite3052"
         in2="SourceGraphic"
         in="flood"
         operator="in"
         result="composite1" />
      <feGaussianBlur
         id="feGaussianBlur3054"
         in="composite"
         stdDeviation="10"
         result="blur" />
      <feOffset
         id="feOffset3056"
         dx="20"
         dy="20"
         result="offset" />
      <feComposite
         id="feComposite3058"
         in2="offset"
         in="SourceGraphic"
         operator="over"
         result="fbSourceGraphic" />
      <feColorMatrix
         result="fbSourceGraphicAlpha"
         in="fbSourceGraphic"
         values="0 0 0 -1 0 0 0 0 -1 0 0 0 0 -1 0 0 0 0 1 0"
         id="feColorMatrix3060" />
      <feFlood
         id="feFlood3062"
         flood-opacity="0.5"
         flood-color="rgb(0,0,0)"
         result="flood"
         in="fbSourceGraphic" />
      <feComposite
         id="feComposite3064"
         in2="fbSourceGraphic"
         in="flood"
         operator="in"
         result="composite1" />
      <feGaussianBlur
         id="feGaussianBlur3066"
         in="composite"
         stdDeviation="10"
         result="blur" />
      <feOffset
         id="feOffset3068"
         dx="20"
         dy="20"
         result="offset" />
      <feComposite
         id="feComposite3070"
         in2="offset"
         in="fbSourceGraphic"
         operator="over"
         result="composite2" />
    </filter>
  </defs>
  <sodipodi:namedview
     id="base"
     pagecolor="#ffffff"
     bordercolor="#666666"
     borderopacity="1.0"
     inkscape:pageopacity="0.0"
     inkscape:pageshadow="2"
     inkscape:zoom="0.45254834"
     inkscape:cx="655.79415"
     inkscape:cy="507.51196"
     inkscape:document-units="px"
     inkscape:current-layer="layer1"
     showgrid="false"
     inkscape:window-width="1366"
     inkscape:window-height="719"
     inkscape:window-x="0"
     inkscape:window-y="25"
     inkscape:window-maximized="1" />
  <metadata
     id="metadata7">
    <rdf:RDF>
      <cc:Work
         rdf:about="">
        <dc:format>image/svg+xml</dc:format>
        <dc:type
           rdf:resource="http://purl.org/dc/dcmitype/StillImage" />
        <dc:title>5.16 Место остановки автобуса и (или) троллейбуса</dc:title>
        <cc:license
           rdf:resource="http://creativecommons.org/licenses/by-sa/3.0/" />
        <dc:contributor>
          <cc:Agent>
            <dc:title />
          </cc:Agent>
        </dc:contributor>
        <dc:description>ГОСТ Р 52290-2004
Размеры и пропорции по типоразмеру I</dc:description>
      </cc:Work>
      <cc:License
         rdf:about="http://creativecommons.org/licenses/by-sa/3.0/">
        <cc:permits
           rdf:resource="http://creativecommons.org/ns#Reproduction" />
        <cc:permits
           rdf:resource="http://creativecommons.org/ns#Distribution" />
        <cc:requires
           rdf:resource="http://creativecommons.org/ns#Notice" />
        <cc:requires
           rdf:resource="http://creativecommons.org/ns#Attribution" />
        <cc:permits
           rdf:resource="http://creativecommons.org/ns#DerivativeWorks" />
        <cc:requires
           rdf:resource="http://creativecommons.org/ns#ShareAlike" />
      </cc:License>
    </rdf:RDF>
  </metadata>
  <g
     inkscape:label="Layer 1"
     inkscape:groupmode="layer"
     id="layer1"
     transform="translate(0,-152.36218)">
    <g
       id="g3072"
       inkscape:export-filename="/home/narwhale/Documents/NPP_Slobozhanskiy/Map-Slobozhanskiy/map2web/map/pictogram/bus_station.png"
       inkscape:export-xdpi="3.3399999"
       inkscape:export-ydpi="3.3399999">
      <g
         style="filter:url(#filter3048)"
         id="g2993">
        <rect
           style="fill:#231df2;fill-opacity:1;stroke:#000000;stroke-width:1.02829528;stroke-miterlimit:1;stroke-opacity:1;stroke-dasharray:none;stroke-dashoffset:0"
           id="rect2989"
           width="560.13287"
           height="529.19696"
           x="21.00638"
           y="255.77634"
           rx="45.995659"
           ry="46.552586" />
        <rect
           style="fill:#ffffff;fill-opacity:1;stroke:#000000;stroke-width:1.01031482000000006;stroke-miterlimit:1;stroke-opacity:1;stroke-dasharray:none;stroke-dashoffset:0"
           id="rect2991"
           width="496.06927"
           height="456.29453"
           x="53.038166"
           y="291.12268"
           rx="46.723125"
           ry="46.778061" />
        <path
           style="color:#000000;fill:#000000;fill-opacity:1;fill-rule:nonzero;stroke:none;stroke-width:1.27611935;marker:none;visibility:visible;display:inline;overflow:visible;enable-background:accumulate"
           d="m 123.3125,286.875 c -6.6987,0 -12.9006,3.57365 -16.25,9.375 L 74.25,353.09375 c -1.6457,2.85038 -2.5,6.08363 -2.5,9.375 l 0,31.65625 0,37.125 c 0,10.3875 8.3625,18.75 18.75,18.75 l 9.375,0 c 0,-25.88841 20.9867,-46.875 46.875,-46.875 25.8884,0 46.875,20.98659 46.875,46.875 l 198,0 c 0,-25.88841 20.9867,-46.875 46.875,-46.875 25.8884,0 46.875,20.98659 46.875,46.875 l 28.125,0 c 10.3875,0 18.75,-8.3625 18.75,-18.75 l 0,-37.125 0,-31.65625 c 0,-2.01534 -0.33135,-4.02565 -0.96875,-5.9375 L 512.34375,299.6875 C 509.79155,292.03113 502.633,286.875 494.5625,286.875 z m 2.15625,13.125 11.90625,0 9.375,0 c 5.1937,0 9.375,4.18125 9.375,9.375 l 0,37.5 c 0,5.19375 -4.1813,9.375 -9.375,9.375 l -9.375,0 -33.5625,0 c -5.1776,0 -9.375,-4.19728 -9.375,-9.375 0,-1.64559 0.45845,-3.26231 1.28125,-4.6875 l 21.625,-37.5 c 1.6747,-2.90062 4.7755,-4.6875 8.125,-4.6875 z m 58.78125,0 86.25,0 c 5.19375,0 9.375,4.18125 9.375,9.375 l 0,37.5 c 0,5.19375 -4.18125,9.375 -9.375,9.375 l -86.25,0 c -5.19375,0 -9.375,-4.18125 -9.375,-9.375 l 0,-37.5 c 0,-5.19375 4.18125,-9.375 9.375,-9.375 z m 123.75,0 74.25,0 c 5.19375,0 9.375,4.18125 9.375,9.375 l 0,37.5 c 0,5.19375 -4.18125,9.375 -9.375,9.375 l -74.25,0 c -5.19375,0 -9.375,-4.18125 -9.375,-9.375 l 0,-37.5 c 0,-5.19375 4.18125,-9.375 9.375,-9.375 z m 111.75,0 28.125,0 25.3125,0 c 4.1588,0 7.8264,2.72894 9,6.71875 l 11.03125,37.5 c 1.461,4.96725 -1.37645,10.19525 -6.34375,11.65625 -0.859,0.25265 -1.76085,0.375 -2.65625,0.375 l -36.34375,0 -28.125,0 c -5.1938,0 -9.375,-4.18125 -9.375,-9.375 l 0,-37.5 c 0,-5.19375 4.1812,-9.375 9.375,-9.375 z"
           transform="translate(0,152.36218)"
           id="path10982"
           inkscape:connector-curvature="0"
           sodipodi:nodetypes="sccscsscsccscsscsccssscsssscssccsssssssssssssssssssscsccsscssss" />
        <path
           inkscape:connector-curvature="0"
           style="color:#000000;fill:#000000;fill-opacity:1;fill-rule:nonzero;stroke:none;stroke-width:1px;marker:none;visibility:visible;display:inline;overflow:visible;enable-background:accumulate"
           d="m 146.75006,564.86224 c -20.7107,0 -37.5,16.78931 -37.5,37.5 0,20.71068 16.7893,37.5 37.5,37.5 20.7107,0 37.5,-16.78932 37.5,-37.5 0,-20.71069 -16.7893,-37.5 -37.5,-37.5 z m 0,18.75 c 10.3553,0 18.75,8.39465 18.75,18.75 0,10.35534 -8.3947,18.75 -18.75,18.75 -10.3553,0 -18.75,-8.39466 -18.75,-18.75 0,-10.35535 8.3947,-18.75 18.75,-18.75 z"
           id="path10984" />
        <path
           inkscape:connector-curvature="0"
           style="color:#000000;fill:#000000;fill-opacity:1;fill-rule:nonzero;stroke:none;stroke-width:1px;marker:none;visibility:visible;display:inline;overflow:visible;enable-background:accumulate"
           d="m 438.50006,564.86224 c -20.7107,0 -37.5,16.78931 -37.5,37.5 0,20.71068 16.7893,37.5 37.5,37.5 20.7107,0 37.5,-16.78932 37.5,-37.5 0,-20.71069 -16.7893,-37.5 -37.5,-37.5 z m 0,18.75 c 10.3553,0 18.75,8.39465 18.75,18.75 0,10.35534 -8.3947,18.75 -18.75,18.75 -10.3553,0 -18.75,-8.39466 -18.75,-18.75 0,-10.35535 8.3947,-18.75 18.75,-18.75 z"
           id="path10994" />
      </g>
    </g>
  </g>
</svg>
