<?xml version="1.0" encoding="UTF-8" standalone="no"?>
<!-- Created with Inkscape (http://www.inkscape.org/) -->

<svg
   xmlns:dc="http://purl.org/dc/elements/1.1/"
   xmlns:cc="http://creativecommons.org/ns#"
   xmlns:rdf="http://www.w3.org/1999/02/22-rdf-syntax-ns#"
   xmlns:svg="http://www.w3.org/2000/svg"
   xmlns="http://www.w3.org/2000/svg"
   xmlns:sodipodi="http://sodipodi.sourceforge.net/DTD/sodipodi-0.dtd"
   xmlns:inkscape="http://www.inkscape.org/namespaces/inkscape"
   width="600"
   height="900"
   id="svg2"
   version="1.1"
   inkscape:version="0.48.4 r9939"
   sodipodi:docname="train_station.svg">
  <title
     id="title3004">5.16 Место остановки автобуса и (или) троллейбуса</title>
  <defs
     id="defs4">
    <filter
       id="filter3048"
       style="color-interpolation-filters:sRGB;"
       inkscape:label="Drop Shadow">
      <feFlood
         id="feFlood3050"
         flood-opacity="0.5"
         flood-color="rgb(0,0,0)"
         result="flood" />
      <feComposite
         id="feComposite3052"
         in2="SourceGraphic"
         in="flood"
         operator="in"
         result="composite1" />
      <feGaussianBlur
         id="feGaussianBlur3054"
         in="composite"
         stdDeviation="10"
         result="blur" />
      <feOffset
         id="feOffset3056"
         dx="20"
         dy="20"
         result="offset" />
      <feComposite
         id="feComposite3058"
         in2="offset"
         in="SourceGraphic"
         operator="over"
         result="fbSourceGraphic" />
      <feColorMatrix
         result="fbSourceGraphicAlpha"
         in="fbSourceGraphic"
         values="0 0 0 -1 0 0 0 0 -1 0 0 0 0 -1 0 0 0 0 1 0"
         id="feColorMatrix3060" />
      <feFlood
         id="feFlood3062"
         flood-opacity="0.5"
         flood-color="rgb(0,0,0)"
         result="flood"
         in="fbSourceGraphic" />
      <feComposite
         id="feComposite3064"
         in2="fbSourceGraphic"
         in="flood"
         operator="in"
         result="composite1" />
      <feGaussianBlur
         id="feGaussianBlur3066"
         in="composite"
         stdDeviation="10"
         result="blur" />
      <feOffset
         id="feOffset3068"
         dx="20"
         dy="20"
         result="offset" />
      <feComposite
         id="feComposite3070"
         in2="offset"
         in="fbSourceGraphic"
         operator="over"
         result="composite2" />
    </filter>
  </defs>
  <sodipodi:namedview
     id="base"
     pagecolor="#ffffff"
     bordercolor="#666666"
     borderopacity="1.0"
     inkscape:pageopacity="0.0"
     inkscape:pageshadow="2"
     inkscape:zoom="0.45254834"
     inkscape:cx="326.54756"
     inkscape:cy="507.51196"
     inkscape:document-units="px"
     inkscape:current-layer="layer1"
     showgrid="false"
     inkscape:window-width="1366"
     inkscape:window-height="719"
     inkscape:window-x="0"
     inkscape:window-y="25"
     inkscape:window-maximized="1" />
  <metadata
     id="metadata7">
    <rdf:RDF>
      <cc:Work
         rdf:about="">
        <dc:format>image/svg+xml</dc:format>
        <dc:type
           rdf:resource="http://purl.org/dc/dcmitype/StillImage" />
        <dc:title>5.16 Место остановки автобуса и (или) троллейбуса</dc:title>
        <cc:license
           rdf:resource="http://creativecommons.org/licenses/by-sa/3.0/" />
        <dc:contributor>
          <cc:Agent>
            <dc:title />
          </cc:Agent>
        </dc:contributor>
        <dc:description>ГОСТ Р 52290-2004
Размеры и пропорции по типоразмеру I</dc:description>
      </cc:Work>
      <cc:License
         rdf:about="http://creativecommons.org/licenses/by-sa/3.0/">
        <cc:permits
           rdf:resource="http://creativecommons.org/ns#Reproduction" />
        <cc:permits
           rdf:resource="http://creativecommons.org/ns#Distribution" />
        <cc:requires
           rdf:resource="http://creativecommons.org/ns#Notice" />
        <cc:requires
           rdf:resource="http://creativecommons.org/ns#Attribution" />
        <cc:permits
           rdf:resource="http://creativecommons.org/ns#DerivativeWorks" />
        <cc:requires
           rdf:resource="http://creativecommons.org/ns#ShareAlike" />
      </cc:License>
    </rdf:RDF>
  </metadata>
  <g
     inkscape:label="Layer 1"
     inkscape:groupmode="layer"
     id="layer1"
     transform="translate(0,-152.36218)">
    <g
       id="g3035"
       transform="matrix(0.96526042,0,0,1.0216131,-1.2375587,-18.122579)"
       inkscape:export-filename="/home/narwhale/Documents/NPP_Slobozhanskiy/Map-Slobozhanskiy/map2web/map/pictogram/train_station.png"
       inkscape:export-xdpi="3.48"
       inkscape:export-ydpi="3.48">
      <rect
         ry="46.552586"
         rx="45.995659"
         y="255.77634"
         x="21.00638"
         height="529.19696"
         width="560.13287"
         id="rect2989"
         style="fill:#231df2;fill-opacity:1;stroke:#000000;stroke-width:1.02829528;stroke-miterlimit:1;stroke-opacity:1;stroke-dasharray:none;stroke-dashoffset:0;filter:url(#filter3048)" />
      <rect
         ry="46.778061"
         rx="46.723125"
         y="292.22754"
         x="53.038177"
         height="456.29453"
         width="496.06927"
         id="rect2991"
         style="fill:#ffffff;fill-opacity:1;stroke:#000000;stroke-width:1.01031482;stroke-miterlimit:1;stroke-opacity:1;stroke-dasharray:none;stroke-dashoffset:0" />
      <g
         transform="matrix(0.90840382,0,0,0.90630158,28.078954,27.229666)"
         id="g3030">
        <path
           inkscape:connector-curvature="0"
           id="path2229"
           d="m 300.80138,347.67218 -74.09,0.063 c -34.507,0 -59.906,27.714 -59.906,57.906 v 213.85 c 0,29.25 22.894,53.26 45.906,56.97 l -69,103.5 h 39.812 l 49.376,-72.35 h 135.25 l 49.37,72.35 h 39.81 l -69,-103.5 c 23.02,-3.71 45.91,-27.72 45.91,-56.97 v -213.85 c 0,-30.188 -25.4,-57.902 -59.91,-57.902 l -73.53,-0.063 z m -29.34,12.406 h 58.13 c 5.24,0 9.81,4.407 9.81,9.657 v 17 c 0,5.25 -4.31,9.75 -9.81,9.75 h -58.13 c -5.5,0 -9.81,-4.501 -9.81,-9.75 v -17 c 0,-5.25 4.56,-9.657 9.81,-9.657 z m -42.75,47.938 h 143.62 c 19.5,0 29.85,13.971 29.85,29.971 v 38.5 c 0.15,18.5 -13.34,29.81 -29.85,29.81 h -143.62 c -16.5,0 -29.996,-11.31 -29.844,-29.81 v -38.5 c 0,-16 10.344,-29.971 29.844,-29.971 z m -3.25,184.72 c 14.505,0 26.25,11.74 26.25,26.25 0,14.5 -11.745,26.25 -26.25,26.25 -14.505,0 -26.25,-11.75 -26.25,-26.25 0,-14.51 11.745,-26.25 26.25,-26.25 z m 149.5,0 c 14.51,0 26.28,11.74 26.28,26.25 0,14.5 -11.77,26.25 -26.28,26.25 -14.51,0 -26.25,-11.75 -26.25,-26.25 0,-14.51 11.74,-26.25 26.25,-26.25 z" />
        <path
           inkscape:connector-curvature="0"
           id="path2233"
           d="m 278.48138,341.48118 c -9.17,0 -16.59,-7.428 -16.59,-16.593 0,-9.163 7.42,-16.591 16.59,-16.591 9.16,0 16.59,7.428 16.59,16.591 0,9.165 -7.43,16.593 -16.59,16.593 z" />
        <path
           inkscape:connector-curvature="0"
           id="path2235"
           d="m 322.56138,341.48118 c 9.17,0 16.59,-7.428 16.59,-16.593 0,-9.163 -7.42,-16.591 -16.59,-16.591 -9.16,0 -16.59,7.428 -16.59,16.591 0,9.165 7.43,16.593 16.59,16.593 z" />
      </g>
    </g>
  </g>
</svg>
